<svg width="1371" height="962" viewBox="0 0 1371 962" fill="none" xmlns="http://www.w3.org/2000/svg">
    <path opacity="0.05" d="M0 25C0 11.1929 11.1929 0 25 0H1344.93C1358.81 0 1370.07 11.2551 1370.07 25.1389V854.722C1370.07 868.606 1358.81 879.861 1344.93 879.861H25C11.1929 879.861 0 868.668 0 854.861V25Z" fill="url(#paint0_linear_0_1)"/>
    <circle cx="831.165" cy="540.165" r="3.16483" fill="#BF0E13"/>
    <circle cx="877.582" cy="540.165" r="3.16483" fill="#BF0E13"/>
    <circle cx="924" cy="540.165" r="3.16483" fill="#BF0E13"/>
    <circle cx="970.418" cy="540.165" r="3.16483" fill="#BF0E13"/>
    <circle cx="1016.84" cy="540.165" r="3.16483" fill="#BF0E13"/>
    <circle cx="831.165" cy="586.582" r="3.16483" fill="#BF0E13"/>
    <circle cx="877.582" cy="586.582" r="3.16483" fill="#BF0E13"/>
    <circle cx="924" cy="586.582" r="3.16483" fill="#BF0E13"/>
    <circle cx="970.417" cy="586.582" r="3.16483" fill="#BF0E13"/>
    <circle cx="1016.84" cy="586.582" r="3.16483" fill="#BF0E13"/>
    <circle cx="831.165" cy="633" r="3.16483" fill="#BF0E13"/>
    <circle cx="877.582" cy="633" r="3.16483" fill="#BF0E13"/>
    <circle cx="924" cy="633" r="3.16483" fill="#BF0E13"/>
    <circle cx="970.418" cy="633" r="3.16483" fill="#BF0E13"/>
    <circle cx="1016.84" cy="633" r="3.16483" fill="#BF0E13"/>
    <circle cx="831.165" cy="679.418" r="3.16483" fill="#BF0E13"/>
    <circle cx="877.582" cy="679.418" r="3.16483" fill="#BF0E13"/>
    <circle cx="924" cy="679.418" r="3.16483" fill="#BF0E13"/>
    <circle cx="970.418" cy="679.418" r="3.16483" fill="#BF0E13"/>
    <circle cx="1016.84" cy="679.418" r="3.16483" fill="#BF0E13"/>
    <circle cx="831.165" cy="725.835" r="3.16483" fill="#BF0E13"/>
    <circle cx="877.582" cy="725.835" r="3.16483" fill="#BF0E13"/>
    <circle cx="924" cy="725.835" r="3.16483" fill="#BF0E13"/>
    <circle cx="970.418" cy="725.835" r="3.16483" fill="#BF0E13"/>
    <circle cx="1016.84" cy="725.835" r="3.16483" fill="#BF0E13"/>
    <circle cx="831.165" cy="772.253" r="3.16483" fill="#BF0E13"/>
    <circle cx="877.582" cy="772.253" r="3.16483" fill="#BF0E13"/>
    <circle cx="924" cy="772.253" r="3.16483" fill="#BF0E13"/>
    <circle cx="970.418" cy="772.253" r="3.16483" fill="#BF0E13"/>
    <circle cx="1016.84" cy="772.253" r="3.16483" fill="#BF0E13"/>
    <circle cx="831.165" cy="818.67" r="3.16483" fill="#BF0E13"/>
    <circle cx="877.582" cy="818.67" r="3.16483" fill="#BF0E13"/>
    <circle cx="924" cy="818.67" r="3.16483" fill="#BF0E13"/>
    <circle cx="970.418" cy="818.67" r="3.16483" fill="#BF0E13"/>
    <circle cx="1016.84" cy="818.67" r="3.16483" fill="#BF0E13"/>
    <circle cx="831.165" cy="865.088" r="3.16483" fill="#BF0E13"/>
    <circle cx="877.582" cy="865.088" r="3.16483" fill="#BF0E13"/>
    <circle cx="924" cy="865.088" r="3.16483" fill="#BF0E13"/>
    <circle cx="970.418" cy="865.088" r="3.16483" fill="#BF0E13"/>
    <circle cx="1016.84" cy="865.088" r="3.16483" fill="#BF0E13"/>
    <circle cx="831.165" cy="911.505" r="3.16483" fill="#BF0E13"/>
    <circle cx="877.582" cy="911.505" r="3.16483" fill="#BF0E13"/>
    <circle cx="924" cy="911.505" r="3.16483" fill="#BF0E13"/>
    <circle cx="970.418" cy="911.505" r="3.16483" fill="#BF0E13"/>
    <circle cx="1016.84" cy="911.505" r="3.16483" fill="#BF0E13"/>
    <circle cx="831.165" cy="957.923" r="3.16483" fill="#BF0E13"/>
    <circle cx="877.582" cy="957.923" r="3.16483" fill="#BF0E13"/>
    <circle cx="924" cy="957.923" r="3.16483" fill="#BF0E13"/>
    <circle cx="970.418" cy="957.923" r="3.16483" fill="#BF0E13"/>
    <circle cx="1016.84" cy="957.923" r="3.16483" fill="#BF0E13"/>
    <defs>
        <linearGradient id="paint0_linear_0_1" x1="772.533" y1="1087.86" x2="1307.98" y2="227.708" gradientUnits="userSpaceOnUse">
            <stop stop-color="#EB242A"/>
            <stop offset="1" stop-color="#B81B20"/>
        </linearGradient>
    </defs>
</svg>
