<svg width="1267" height="927" viewBox="0 0 1267 927" fill="none" xmlns="http://www.w3.org/2000/svg">
<path d="M903.5 927H1025.5L248.457 480.84L193.402 512.577L903.5 927Z" fill="url(#paint0_linear_161_2)"/>
<path d="M213.729 200.712C171.341 213.672 149.295 185.157 117.7 194.699C106.517 198.093 17.8505 217.735 10.7865 175.437C9.50591 179.894 9.0216 184.201 9.54517 188.022C15.8249 231.183 105.378 211.268 116.621 207.844C148.217 198.302 170.262 226.816 212.65 213.857C234.806 207.104 240.584 193.903 238.16 181.86C235.229 189.487 227.858 196.393 213.729 200.712Z" fill="#D1D1D1"/>
<path d="M216.772 158.728C196.285 151.727 219.499 114.655 171.751 104.286C124.003 93.917 113.548 163.767 75.2908 145.785C43.569 130.869 16.9801 155.073 10.6952 176.662C17.748 218.828 106.228 199.232 117.438 195.864C148.983 186.352 170.994 214.777 213.314 201.858C227.376 197.538 234.78 190.669 237.736 183.126C235.537 172.102 226.589 162.091 216.772 158.728Z" fill="#FEFEFE"/>
<path d="M1112.78 666.151L831.399 828.559L879.078 856.049L1160.46 693.641L1112.78 666.151Z" fill="#FEFEFE"/>
<path opacity="0.1" d="M778.206 425.297L619.747 333.812L778.206 242.328L936.739 333.812L778.206 425.297Z" fill="black"/>
<path d="M883.55 337.91L775.75 400.117V298.724L883.55 236.518V337.91Z" fill="#B6B6B6"/>
<path d="M775.748 400.117L667.949 337.91V236.518L775.748 298.724V400.117Z" fill="#D1D1D1"/>
<path d="M775.748 298.724L667.949 236.518L775.748 174.237L883.548 236.518L775.748 298.724Z" fill="#FEFEFE"/>
<path d="M859.706 235.995L775.746 284.494V1.32393L859.706 -47.1748V235.995Z" fill="#B6B6B6"/>
<path d="M775.748 284.494L691.713 235.995V-47.1748L775.748 1.32393V284.494Z" fill="#D1D1D1"/>
<path d="M775.748 1.3239L691.713 -47.1748L775.748 -95.6736L859.708 -47.1748L775.748 1.3239Z" fill="#FEFEFE"/>
<path d="M775.748 364.282L667.949 302.076V304.758L775.748 366.964L883.548 304.758V302.076L775.748 364.282Z" fill="#7E7E7E"/>
<path d="M775.748 331.876L667.949 269.594V272.276L775.748 334.557L883.548 272.276V269.594L775.748 331.876Z" fill="#7E7E7E"/>
<path d="M706.911 9.59347L702.143 6.83701V-15.1401L706.911 -12.3837V9.59347Z" fill="white"/>
<path d="M720.396 17.416L715.628 14.6595V-7.31763L720.396 -4.56116V17.416Z" fill="white"/>
<path d="M733.953 25.1635L729.185 22.4071V0.429932L733.953 3.18638V25.1635Z" fill="white"/>
<path d="M747.438 32.9861L742.67 30.2296V8.25244L747.438 11.0089V32.9861Z" fill="white"/>
<path d="M760.923 40.7341L756.155 37.9776V16.0005L760.923 18.7569V40.7341Z" fill="white"/>
<path d="M706.911 60.998L702.143 58.2416V36.2644L706.911 39.0209V60.998Z" fill="white"/>
<path d="M720.396 68.7461L715.628 65.9896V44.0125L720.396 46.7689V68.7461Z" fill="white"/>
<path d="M733.953 76.5683L729.185 73.8119V51.8347L733.953 54.5912V76.5683Z" fill="white"/>
<path d="M747.438 84.3164L742.67 81.5599V59.5828L747.438 62.3392V84.3164Z" fill="white"/>
<path d="M760.923 92.1389L756.155 89.3824V67.4053L760.923 70.1617V92.1389Z" fill="white"/>
<path d="M706.911 112.328L702.143 109.571V87.5942L706.911 90.3507V112.328Z" fill="white"/>
<path d="M720.396 120.151L715.628 117.394V95.417L720.396 98.1734V120.151Z" fill="white"/>
<path d="M733.953 127.898L729.185 125.141V103.164L733.953 105.921V127.898Z" fill="white"/>
<path d="M747.438 135.72L742.67 132.964V110.987L747.438 113.743V135.72Z" fill="white"/>
<path d="M760.923 143.469L756.155 140.787V118.735L760.923 121.492V143.469Z" fill="white"/>
<path d="M706.911 163.731L702.143 160.975V138.998L706.911 141.754V163.731Z" fill="white"/>
<path d="M720.396 171.479L715.628 168.723V146.746L720.396 149.502V171.479Z" fill="white"/>
<path d="M733.953 179.301L729.185 176.545V154.568L733.953 157.324V179.301Z" fill="white"/>
<path d="M747.438 187.05L742.67 184.368V162.316L747.438 165.072V187.05Z" fill="white"/>
<path d="M760.923 194.872L756.155 192.116V170.139L760.923 172.895V194.872Z" fill="white"/>
<path d="M706.911 215.061L702.143 212.304V190.327L706.911 193.084V215.061Z" fill="white"/>
<path d="M720.396 222.884L715.628 220.127V198.15L720.396 200.906V222.884Z" fill="white"/>
<path d="M733.953 230.631L729.185 227.949V205.897L733.953 208.653V230.631Z" fill="white"/>
<path d="M747.438 238.453L742.67 235.697V213.72L747.438 216.476V238.453Z" fill="white"/>
<path d="M760.923 246.275L756.155 243.519V221.542L760.923 224.298V246.275Z" fill="white"/>
<path d="M844.884 9.59323L849.578 6.83677V-15.1404L844.884 -12.3839V9.59323Z" fill="white"/>
<path d="M831.327 17.4157L836.095 14.6593V-7.31787L831.327 -4.56141V17.4157Z" fill="white"/>
<path d="M817.842 25.1631L822.61 22.4066V0.429443L817.842 3.18589V25.1631Z" fill="white"/>
<path d="M804.357 32.9861L809.125 30.2296V8.25244L804.357 11.0089V32.9861Z" fill="white"/>
<path d="M790.873 40.7341L795.64 37.9776V16.0005L790.873 18.7569V40.7341Z" fill="white"/>
<path d="M844.884 60.9973L849.578 58.2408V36.2637L844.884 39.0201V60.9973Z" fill="white"/>
<path d="M831.327 68.7453L836.095 65.9889V44.0117L831.327 46.7682V68.7453Z" fill="white"/>
<path d="M817.842 76.5674L822.61 73.8109V51.8337L817.842 54.5902V76.5674Z" fill="white"/>
<path d="M804.357 84.3156L809.125 81.5592V59.582L804.357 62.3385V84.3156Z" fill="white"/>
<path d="M790.873 92.1382L795.64 89.3817V67.4045L790.873 70.161V92.1382Z" fill="white"/>
<path d="M844.884 112.327L849.578 109.571V87.5938L844.884 90.3502V112.327Z" fill="white"/>
<path d="M831.327 120.15L836.095 117.394V95.4165L831.327 98.173V120.15Z" fill="white"/>
<path d="M817.842 127.897L822.61 125.141V103.164L817.842 105.92V127.897Z" fill="white"/>
<path d="M804.357 135.72L809.125 132.964V110.987L804.357 113.743V135.72Z" fill="white"/>
<path d="M790.873 143.468L795.64 140.787V118.735L790.873 121.491V143.468Z" fill="white"/>
<path d="M844.884 163.731L849.578 160.975V138.998L844.884 141.754V163.731Z" fill="white"/>
<path d="M831.327 171.479L836.095 168.723V146.746L831.327 149.502V171.479Z" fill="white"/>
<path d="M817.842 179.301L822.61 176.545V154.568L817.842 157.324V179.301Z" fill="white"/>
<path d="M804.357 187.05L809.125 184.368V162.316L804.357 165.072V187.05Z" fill="white"/>
<path d="M790.873 194.872L795.64 192.116V170.139L790.873 172.895V194.872Z" fill="white"/>
<path d="M844.884 215.061L849.578 212.304V190.327L844.884 193.083V215.061Z" fill="white"/>
<path d="M831.327 222.883L836.095 220.127V198.15L831.327 200.906V222.883Z" fill="white"/>
<path d="M817.842 230.631L822.61 227.949V205.897L817.842 208.653V230.631Z" fill="white"/>
<path d="M804.357 238.453L809.125 235.697V213.72L804.357 216.476V238.453Z" fill="white"/>
<path d="M790.873 246.275L795.64 243.519V221.542L790.873 224.298V246.275Z" fill="white"/>
<path opacity="0.1" d="M614.384 493.687L717.491 434.088L583.691 356.907L480.584 416.432L614.384 493.687Z" fill="black"/>
<path d="M613.492 213.125L685.905 171.256L591.887 117.021L519.474 158.815L613.492 213.125Z" fill="#FEFEFE"/>
<path d="M592.559 127.749L670.186 172.523L672.645 171.107L592.559 124.918L533.556 158.592L536.089 160.007L592.559 127.749Z" fill="url(#paint1_linear_161_2)"/>
<path d="M592.559 127.749L670.186 172.523L672.645 171.107L592.559 124.918L533.556 158.592L536.089 160.007L592.559 127.749Z" fill="#7E7E7E"/>
<path d="M536.087 160.008L592.558 127.75L670.111 172.523L613.939 205.005L536.087 160.008Z" fill="#D1D1D1"/>
<path d="M613.492 473.051L519.474 418.742V158.815L613.492 213.125V473.051Z" fill="#DEDEDE"/>
<path d="M685.906 431.183L613.493 473.051V213.125L685.906 171.257V431.183Z" fill="#B8B8B8"/>
<path d="M530.125 186.826L531.838 187.794V224.299L530.125 223.405V186.826Z" fill="#7E7E7E"/>
<path d="M547.409 196.809V233.313L531.838 224.299V187.794L547.409 196.809Z" fill="white"/>
<path d="M575.643 240.092L562.605 247.691V229.663L575.643 222.064V240.092Z" fill="#B8B8B8"/>
<path d="M519.548 207.611L506.511 215.135L506.437 197.181L519.474 189.657L519.548 207.611Z" fill="#7E7E7E"/>
<path d="M562.607 247.692L504.647 214.242V196.213L562.607 229.663V247.692Z" fill="#D1D1D1"/>
<path d="M562.607 227.577L508.223 196.213L519.472 189.657V187.645L505.988 195.468L504.647 196.213L562.607 229.663L564.321 228.62L575.644 222.064L573.856 221.095L562.607 227.577Z" fill="white"/>
<path d="M530.125 242.254L531.838 243.223V279.727L530.125 278.833V242.254Z" fill="#7E7E7E"/>
<path d="M547.409 252.237V288.741L531.838 279.727V243.223L547.409 252.237Z" fill="white"/>
<path d="M575.643 295.52L562.605 303.119V285.09L575.643 277.492V295.52Z" fill="#B8B8B8"/>
<path d="M519.548 263.039L506.511 270.563L506.437 252.684L519.474 245.085L519.548 263.039Z" fill="#7E7E7E"/>
<path d="M562.607 303.12L504.647 269.67V251.641L562.607 285.091V303.12Z" fill="#D1D1D1"/>
<path d="M562.607 283.005L508.223 251.641L519.472 245.085V243.073L505.988 250.896L504.647 251.641L562.607 285.091L564.321 284.048L575.644 277.492L573.856 276.523L562.607 283.005Z" fill="white"/>
<path d="M530.125 297.681L531.838 298.649V335.154L530.125 334.26V297.681Z" fill="#7E7E7E"/>
<path d="M547.409 307.664V344.243L531.838 335.154V298.649L547.409 307.664Z" fill="white"/>
<path d="M575.643 350.947L562.605 358.546V340.517L575.643 332.918V350.947Z" fill="#B8B8B8"/>
<path d="M519.548 318.466L506.511 325.99L506.437 308.11L519.474 300.511L519.548 318.466Z" fill="#7E7E7E"/>
<path d="M562.607 358.546L504.647 325.096V307.067L562.607 340.517V358.546Z" fill="#D1D1D1"/>
<path d="M562.607 338.431L508.223 307.067L519.472 300.511V298.5L505.988 306.322L504.647 307.067L562.607 340.517L564.321 339.474L575.644 332.993L573.856 331.95L562.607 338.431Z" fill="white"/>
<path d="M530.125 353.107L531.839 354.075V390.58L530.125 389.686V353.107Z" fill="#7E7E7E"/>
<path d="M547.409 363.09V399.669L531.839 390.58V354.076L547.409 363.09Z" fill="white"/>
<path d="M575.643 406.448L562.606 413.973V395.944L575.643 388.42V406.448Z" fill="#B8B8B8"/>
<path d="M519.549 373.892L506.511 381.417L506.437 363.537L519.474 355.938L519.549 373.892Z" fill="#7E7E7E"/>
<path d="M562.607 413.973L504.647 380.523V362.494L562.607 395.944V413.973Z" fill="#D1D1D1"/>
<path d="M562.608 393.932L508.223 362.494L519.473 355.938V353.927L505.988 361.749L504.647 362.494L562.608 395.944L564.321 394.901L575.645 388.419L573.857 387.376L562.608 393.932Z" fill="white"/>
<path d="M636.287 215.51L635.169 216.18V240.616L636.287 239.945V215.51Z" fill="#7E7E7E"/>
<path d="M624.74 222.214V246.65L635.17 240.615V216.18L624.74 222.214Z" fill="white"/>
<path d="M655.955 204.186L654.838 204.856V229.292L655.955 228.621V204.186Z" fill="#7E7E7E"/>
<path d="M644.409 210.89V235.326L654.839 229.292V204.856L644.409 210.89Z" fill="white"/>
<path d="M675.62 192.862L674.503 193.458V217.968L675.62 217.297V192.862Z" fill="#7E7E7E"/>
<path d="M664.074 199.491V224.002L674.504 217.967V193.457L664.074 199.491Z" fill="white"/>
<path d="M636.287 270.937L635.169 271.533V296.043L636.287 295.373V270.937Z" fill="#7E7E7E"/>
<path d="M624.74 277.567V302.077L635.17 296.043V271.533L624.74 277.567Z" fill="white"/>
<path d="M655.955 259.613L654.838 260.209V284.719L655.955 284.049V259.613Z" fill="#7E7E7E"/>
<path d="M644.409 266.243V290.679L654.839 284.719V260.209L644.409 266.243Z" fill="white"/>
<path d="M675.62 248.214L674.503 248.885V273.32L675.62 272.724V248.214Z" fill="#7E7E7E"/>
<path d="M664.074 254.919V279.355L674.504 273.32V248.885L664.074 254.919Z" fill="white"/>
<path d="M636.287 326.29L635.169 326.96V351.396L636.287 350.8V326.29Z" fill="#7E7E7E"/>
<path d="M624.74 332.994V357.43L635.17 351.395V326.96L624.74 332.994Z" fill="white"/>
<path d="M655.955 314.965L654.838 315.636V340.071L655.955 339.475V314.965Z" fill="#7E7E7E"/>
<path d="M644.409 321.67V346.106L654.839 340.071V315.636L644.409 321.67Z" fill="white"/>
<path d="M675.62 303.641L674.503 304.312V328.748L675.62 328.077V303.641Z" fill="#7E7E7E"/>
<path d="M664.074 310.346V334.782L674.504 328.747V304.312L664.074 310.346Z" fill="white"/>
<path d="M636.287 381.716L635.169 382.386V406.822L636.287 406.152V381.716Z" fill="#7E7E7E"/>
<path d="M624.74 388.421V412.856L635.17 406.822V382.386L624.74 388.421Z" fill="white"/>
<path d="M655.955 370.392L654.838 370.988V395.498L655.955 394.828V370.392Z" fill="#7E7E7E"/>
<path d="M644.409 377.022V401.532L654.839 395.498V370.988L644.409 377.022Z" fill="white"/>
<path d="M675.62 359.068L674.503 359.664V384.174L675.62 383.504V359.068Z" fill="#7E7E7E"/>
<path d="M664.074 365.698V390.208L674.504 384.174V359.664L664.074 365.698Z" fill="white"/>
<path opacity="0.1" d="M924.971 503.297L825.44 445.784C818.959 442.059 819.778 435.503 827.228 431.182L923.108 375.829C930.633 371.508 941.957 371.061 948.438 374.786L1047.97 432.225C1054.45 435.95 1053.63 442.506 1046.18 446.827L950.3 502.179C942.776 506.575 931.452 507.022 924.971 503.297Z" fill="black"/>
<path d="M928.621 143.841L860.231 104.356C855.761 101.749 856.357 97.2789 861.497 94.2989L927.354 56.3045C932.495 53.3246 940.317 53.0266 944.787 55.5595L1013.18 95.0439C1017.65 97.6514 1017.05 102.121 1011.91 105.101L946.054 143.096C940.913 146.076 933.091 146.374 928.621 143.841Z" fill="#FEFEFE"/>
<path d="M879.751 100.705L929.666 71.8743C933.54 69.6393 939.5 69.3413 942.852 71.3528L994.629 101.227C995.076 101.525 995.448 101.748 995.746 102.121C997.534 100.109 997.236 97.7254 994.629 96.1609L942.852 66.2869C939.5 64.3499 933.54 64.5734 929.666 66.8084L879.751 95.6394C876.399 97.5764 875.58 100.407 877.665 102.419C878.187 101.748 878.857 101.152 879.751 100.705Z" fill="#7E7E7E"/>
<path d="M878.784 103.239L930.561 133.113C933.913 135.05 939.873 134.826 943.747 132.591L993.661 103.76C994.555 103.239 995.226 102.643 995.747 102.047C995.449 101.749 995.077 101.451 994.63 101.153L942.853 71.2786C939.501 69.3416 933.541 69.5651 929.667 71.8001L879.752 100.631C878.858 101.153 878.188 101.749 877.667 102.345C877.964 102.643 878.337 102.941 878.784 103.239Z" fill="#D1D1D1"/>
<path d="M1016.16 99.7375C1016.01 101.6 1014.59 103.537 1011.91 105.101L946.052 143.096C943.37 144.66 940.018 145.48 936.74 145.554H936.665V390.879V482.811C939.943 482.736 943.37 481.917 946.052 480.352L1012.13 442.209C1014.37 440.942 1015.71 439.378 1016.16 437.739V435.206V99.7375Z" fill="#B8B8B8"/>
<path d="M860.306 104.356C858.146 103.09 857.252 101.451 857.326 99.7375H857.252V435.876V438.335C857.624 439.527 858.518 440.57 860.008 441.464L928.547 481.023C930.708 482.289 933.613 482.811 936.668 482.736V390.879V145.554H936.593C933.613 145.629 930.708 145.107 928.547 143.841L860.306 104.356Z" fill="#D1D1D1"/>
<path d="M946.055 192.488C940.244 195.84 933.986 196.064 928.622 193.233L857.252 152.035V153.972L928.622 195.17C933.092 197.777 940.84 197.405 946.055 194.425L1016.16 153.898V152.035L946.055 192.488Z" fill="#7E7E7E"/>
<path d="M946.055 243.147C940.244 246.5 933.986 246.723 928.622 243.892L857.252 202.695V204.632L928.622 245.829C933.092 248.437 940.84 248.064 946.055 245.084L1016.16 204.557V202.695L946.055 243.147Z" fill="#7E7E7E"/>
<path d="M946.055 293.806C940.244 297.159 933.986 297.382 928.622 294.551L857.252 253.353V255.29L928.622 296.488C933.092 299.096 940.84 298.723 946.055 295.743L1016.16 255.216V253.353L946.055 293.806Z" fill="#7E7E7E"/>
<path d="M946.055 344.466C940.244 347.818 933.986 348.042 928.622 345.211L857.252 304.013V305.95L928.622 347.148C933.092 349.755 940.84 349.383 946.055 346.403L1016.16 305.875V304.013L946.055 344.466Z" fill="#7E7E7E"/>
<path d="M946.055 395.124C940.244 398.477 933.986 398.7 928.622 395.869L857.252 354.672V356.608L928.622 397.806C933.092 400.414 940.84 400.041 946.055 397.061L1016.16 356.534V354.672L946.055 395.124Z" fill="#7E7E7E"/>
<path opacity="0.1" d="M1427.76 692.226L1169.7 563.418L1080.67 482.885L880.867 599.103L993.36 665.258L1075.23 617.951L1317.8 758.009L1427.76 692.226Z" fill="black"/>
<path d="M1075.61 599.4L996.191 645.217V553.584L1075.61 507.767V599.4Z" fill="#B8B8B8"/>
<path d="M996.192 645.217L916.851 599.4V507.767L996.192 553.584V645.217Z" fill="#D1D1D1"/>
<path d="M1313.78 736.925L1075.61 599.4V507.767L1313.78 645.217V736.925Z" fill="#D1D1D1"/>
<path d="M1313.78 645.218L1075.61 507.767L1155.02 461.876L1393.12 599.401L1313.78 645.218Z" fill="#FEFEFE"/>
<path d="M996.192 553.584L916.851 507.767L1075.61 416.059L1155.02 461.876L996.192 553.584Z" fill="#FEFEFE"/>
<path d="M1313.63 665.258L1092.29 537.493V549.412L1313.63 677.178V665.258Z" fill="#FEFEFE"/>
<path d="M1095.12 551.051V539.132L1092.29 537.493V549.412V552.765L1313.63 680.53V677.178L1095.12 551.051Z" fill="#7E7E7E"/>
<path d="M1313.63 699.528L1092.29 571.688V583.607L1313.63 711.373V699.528Z" fill="#FEFEFE"/>
<path d="M1095.12 585.246V573.326L1092.29 571.688V583.607V586.96L1313.63 714.725V711.373L1095.12 585.246Z" fill="#7E7E7E"/>
<path d="M1052.51 612.736L1020.7 631.063V563.716L1052.51 545.389V612.736Z" fill="#FEFEFE"/>
<path d="M1047.45 548.294V615.641L1052.51 612.736V545.389L1047.45 548.294Z" fill="#7E7E7E"/>
<path d="M928.993 542.037V577.796L933.016 580.106V544.346L928.993 542.037Z" fill="#7E7E7E"/>
<path d="M981.962 572.582L933.016 544.347V580.106L981.962 608.341V572.582Z" fill="#FEFEFE"/>
<path d="M996.192 483.108L963.562 502.031L996.192 520.879L1028.9 502.031L996.192 483.108Z" fill="#D1D1D1"/>
<path d="M1028.9 502.031V506.128L996.191 524.977V520.879L1028.9 502.031Z" fill="#B8B8B8"/>
<path d="M963.562 502.031V506.128L996.192 524.977V520.879L963.562 502.031Z" fill="#DFDFDF"/>
<path d="M1157.03 476.254L1102.35 507.767L1312.59 629.125L1366.38 597.091L1157.03 476.254Z" fill="#D1D1D1"/>
<path d="M1361.31 599.102L1366.38 597.091L1157.03 476.254L1102.35 507.767L1106.6 510.225L1157.03 481.096L1361.31 599.102Z" fill="#7E7E7E"/>
<path d="M992.318 759.27C986.134 755.694 976.152 755.694 970.043 759.27C964.455 762.548 964.008 767.614 968.627 771.116L840.635 843.485L512.577 647.977L510.268 652L839.518 848.104L840.635 848.775L973.768 773.5C979.727 775.362 987.252 774.99 992.318 772.084C998.427 768.583 998.427 762.772 992.318 759.27Z" fill="#F40494"/>
<path opacity="0.1" d="M769.936 770.226C769.936 770.226 770.83 812.541 707.357 822.897C643.884 833.252 503.678 742.885 491.087 735.361C478.497 727.836 466.279 698.111 467.769 679.561C469.334 661.011 495.781 675.315 495.781 675.315L769.936 770.226Z" fill="black"/>
<path d="M693.723 785.722L699.162 805.911C699.385 807.774 699.087 809.487 702.961 808.891C711.38 807.55 733.431 803.304 749.597 791.98C756.973 786.765 761.666 782.965 764.646 780.283C767.999 777.229 769.936 772.908 769.936 768.289V744.524L705.718 768.289C704.675 768.662 703.855 769.481 703.408 770.524L695.735 781.922C695.362 782.518 693.649 784.977 693.723 785.722Z" fill="url(#paint2_linear_161_2)"/>
<path d="M610.361 766.725L650.069 755.773L609.02 735.286L608.349 762.031L610.361 766.725Z" fill="#950B63"/>
<path d="M654.538 781.475C654.538 769.555 646.194 755.027 635.839 749.068C630.624 746.088 625.93 745.79 622.578 747.801L618.257 750.334L619.672 750.558C618.108 752.793 617.214 755.921 617.214 759.87C617.214 771.79 625.558 786.317 635.913 792.277C639.117 794.139 642.096 794.884 644.704 794.81L643.81 796.672L649.025 793.692C649.099 793.692 649.174 793.618 649.248 793.543L649.472 793.394C652.601 791.308 654.538 787.211 654.538 781.475Z" fill="#191919"/>
<path d="M649.545 784.454C649.545 796.374 641.202 801.216 630.846 795.256C620.491 789.297 612.147 774.769 612.147 762.849C612.147 750.93 620.491 746.087 630.846 752.047C641.127 758.007 649.545 772.534 649.545 784.454Z" fill="#323232"/>
<path d="M642.019 780.134C642.019 787.285 637.028 790.191 630.844 786.615C624.661 783.039 619.669 774.323 619.669 767.171C619.669 760.019 624.661 757.113 630.844 760.689C637.028 764.265 642.019 772.982 642.019 780.134Z" fill="#EEEFEF"/>
<path d="M633.378 775.142C633.378 776.781 632.186 777.451 630.771 776.632C629.356 775.812 628.164 773.801 628.164 772.162C628.164 770.523 629.281 769.852 630.771 770.672C632.261 771.491 633.378 773.503 633.378 775.142Z" fill="#323232"/>
<path d="M484.829 694.684L488.554 694.833L501.144 681.349L487.958 679.487L483.786 692.971L484.829 694.684Z" fill="#950B63"/>
<path d="M528.487 716.288C528.487 704.368 520.143 689.841 509.787 683.881C504.572 680.901 499.879 680.603 496.527 682.615L492.206 685.148L493.621 685.371C492.057 687.606 491.163 690.735 491.163 694.684C491.163 706.603 499.506 721.131 509.862 727.091C513.065 728.953 516.045 729.698 518.653 729.624L517.759 731.486L522.974 728.432C523.048 728.432 523.123 728.357 523.197 728.283L523.421 728.134C526.55 726.122 528.487 722.025 528.487 716.288Z" fill="#191919"/>
<path d="M523.421 719.194C523.421 731.114 515.077 735.956 504.722 729.996C494.366 724.037 486.022 709.509 486.022 697.589C486.022 685.67 494.366 680.827 504.722 686.787C515.077 692.747 523.421 707.274 523.421 719.194Z" fill="#323232"/>
<path d="M515.971 714.874C515.971 722.026 510.98 724.931 504.796 721.355C498.613 717.779 493.622 709.063 493.622 701.911C493.622 694.759 498.613 691.854 504.796 695.429C510.98 699.005 515.971 707.722 515.971 714.874Z" fill="#EEEFEF"/>
<path d="M507.331 709.882C507.331 711.521 506.213 712.191 504.723 711.372C503.308 710.552 502.116 708.541 502.116 706.902C502.116 705.263 503.308 704.592 504.723 705.412C506.213 706.231 507.331 708.243 507.331 709.882Z" fill="#323232"/>
<path d="M473.058 646.483L542.342 602.603C545.397 600.667 548.749 599.773 552.176 600.964L569.385 606.999C569.385 606.999 608.646 603.05 640.308 618.993C671.97 634.936 691.265 660.191 695.735 664.885C700.205 669.578 718.606 690.736 718.606 690.736C718.606 690.736 767.999 726.719 769.936 744.151C769.936 744.375 769.936 744.524 769.787 744.673C767.18 747.206 739.168 773.876 699.833 784.381C697.97 784.902 696.033 784.604 694.394 783.636L632.635 747.429L471.196 660.489L473.058 646.483Z" fill="url(#paint3_linear_161_2)"/>
<path d="M687.764 771.716C671.002 755.251 639.265 734.094 625.185 712.34C611.105 690.586 586.669 666.896 556.721 657.956C530.05 649.984 505.168 654.082 503.38 654.38C503.305 654.38 503.231 654.38 503.156 654.38L475.889 645.142C473.58 644.397 471.271 646.036 471.271 648.494V662.5C471.271 662.649 471.271 662.724 471.122 662.798C470.377 663.469 466.503 667.492 467.322 675.985C468.216 685.371 473.58 688.277 473.58 688.277L484.904 694.758C484.904 694.311 484.978 694.237 484.978 693.864C485.872 684.03 496.824 678.965 507.105 684.924C517.46 690.884 525.804 705.412 525.804 717.331C525.804 717.629 525.804 717.927 525.729 718.225L600.601 761.211L609.615 766.352C609.913 766.501 610.36 766.277 610.285 765.905C609.913 762.031 609.242 746.982 622.503 746.609C638.148 746.162 650.589 767.618 652.005 780.432C652.452 784.678 651.856 787.882 651.558 790.191C651.558 790.34 651.632 790.489 651.781 790.564L673.684 803.154C673.907 803.229 683.965 808.071 698.045 809.188C698.865 809.263 699.684 808.667 699.833 807.773C700.504 802.707 701.844 785.572 687.764 771.716Z" fill="url(#paint4_linear_161_2)"/>
<path d="M504.869 661.904L635.019 738.117C635.019 738.117 616.617 698.26 589.351 679.411C563.798 661.755 549.047 658.179 531.316 657.062C517.161 656.019 504.869 661.904 504.869 661.904Z" fill="#EEEFEF"/>
<path d="M615.499 687.234L648.8 727.985C649.992 729.475 651.929 730.071 653.717 729.475C662.284 726.719 687.614 717.257 710.038 695.429C711.23 694.237 711.304 692.3 710.187 691.034L675.098 650.506C673.98 649.24 672.043 649.165 670.851 650.357C665.413 655.945 648.949 670.621 616.616 683.062C614.977 683.733 614.381 685.819 615.499 687.234Z" fill="#EEEFEF"/>
<path d="M538.693 647.6C535.788 647.153 528.114 645.961 521.26 645.961C520.366 645.961 520.068 644.844 520.813 644.322L571.547 612.586C571.92 612.362 572.367 612.213 572.814 612.139C575.272 611.915 583.69 611.245 589.427 612.064C590.246 612.213 590.47 613.256 589.799 613.703L540.854 647.079C540.183 647.526 539.438 647.749 538.693 647.6Z" fill="#EEEFEF"/>
<path d="M471.123 662.053V653.635C471.123 653.635 481.776 656.913 481.851 662.947C482 669.056 471.123 662.053 471.123 662.053Z" fill="#D64883"/>
<path d="M769.936 752.42V765.458C769.936 765.458 765.54 770.971 760.698 770.151C755.855 769.257 758.165 761.211 760.698 759.796C763.231 758.231 769.936 752.42 769.936 752.42Z" fill="#EEEFEF"/>
<path d="M698.789 791.011C698.789 791.011 710.56 785.721 712.944 788.701C715.849 792.352 715.104 798.088 709.442 800.1C703.78 802.111 701.322 803.229 699.087 802.931C696.852 802.633 694.319 802.558 692.68 801.515C689.998 799.951 689.477 793.469 692.68 791.383C694.096 790.564 698.789 791.011 698.789 791.011Z" fill="#EEEFEF"/>
<path d="M758.838 572.134L656.923 514.025L758.167 454.873L860.082 512.908L758.838 572.134Z" fill="#FEFEFE"/>
<g clip-path="url(#clip0_161_2)">
<path opacity="0.1" d="M835.485 593.165L809.289 578.044L831.897 564.986L858.011 580.157L835.485 593.165Z" fill="black"/>
<path opacity="0.1" d="M731.553 534.056L705.357 518.935L727.965 505.878L754.079 521.048L731.553 534.056Z" fill="black"/>
<path d="M821.019 531.451V579.223L835.42 587.545V539.773L821.019 531.451Z" fill="#B8B8B8"/>
<path d="M846.461 581.172L835.419 587.545V539.773L846.461 533.4V581.172Z" fill="#A2A2A2"/>
<path d="M717.185 471.506V519.279L731.586 527.585V479.812L717.185 471.506Z" fill="#B8B8B8"/>
<path d="M742.611 521.228L731.585 527.585V479.813L742.611 473.456V521.228Z" fill="#A2A2A2"/>
<path d="M850.18 564.233L703.768 479.484V252.452L850.18 337.2V564.233Z" fill="#D1D1D1"/>
<path d="M835.272 544.082L715.366 474.652L715.35 272.947L835.256 342.377L835.272 544.082Z" fill="#EB242A"/>
<path d="M719.331 275.24L715.35 272.947V474.668L835.256 544.098V539.708L719.331 472.587V275.24Z" fill="#7E7E7E"/>
<path d="M868.365 553.781L850.18 564.233V337.2L868.365 326.748V553.781Z" fill="#B8B8B8"/>
<path d="M721.952 242L703.768 252.452L850.18 337.2L868.365 326.748L721.952 242Z" fill="#FEFEFE"/>
</g>
<g clip-path="url(#clip1_161_2)">
<path d="M749.803 313.509V355.92L742.608 351.639V318.879L733.965 316.934V310.336L749.028 313.048L749.803 313.509ZM786.126 352.647V359.973C786.126 363.151 785.835 365.719 785.252 367.679C784.669 369.619 783.828 370.998 782.729 371.817C781.646 372.626 780.356 372.934 778.857 372.74C777.358 372.546 775.692 371.904 773.86 370.814C772.395 369.942 771.029 368.916 769.763 367.737C768.498 366.538 767.357 365.171 766.341 363.637C765.342 362.112 764.476 360.424 763.743 358.574C763.027 356.714 762.477 354.681 762.094 352.477C761.711 350.272 761.519 347.891 761.519 345.333V338.008C761.519 334.829 761.811 332.28 762.394 330.36C762.993 328.43 763.834 327.06 764.917 326.25C766.016 325.451 767.315 325.158 768.814 325.371C770.313 325.566 771.978 326.208 773.81 327.297C775.276 328.169 776.633 329.2 777.882 330.389C779.148 331.568 780.289 332.915 781.305 334.431C782.321 335.946 783.187 337.633 783.903 339.494C784.619 341.334 785.169 343.357 785.552 345.561C785.935 347.747 786.126 350.109 786.126 352.647ZM778.907 356.782V347.218C778.907 345.687 778.832 344.306 778.682 343.073C778.549 341.85 778.34 340.758 778.057 339.795C777.774 338.812 777.424 337.945 777.008 337.194C776.592 336.442 776.117 335.792 775.584 335.242C775.051 334.692 774.46 334.224 773.81 333.838C772.994 333.352 772.27 333.105 771.637 333.097C771.021 333.099 770.496 333.378 770.063 333.934C769.63 334.471 769.297 335.339 769.064 336.537C768.847 337.726 768.739 339.27 768.739 341.169V350.733C768.739 352.264 768.806 353.65 768.939 354.892C769.089 356.144 769.305 357.271 769.588 358.273C769.888 359.265 770.238 360.142 770.638 360.903C771.054 361.654 771.529 362.305 772.062 362.854C772.611 363.414 773.211 363.887 773.86 364.273C774.66 364.749 775.368 364.986 775.984 364.984C776.617 364.973 777.15 364.69 777.583 364.133C778.032 363.568 778.365 362.681 778.582 361.472C778.798 360.264 778.907 358.7 778.907 356.782ZM790.923 348.437V346.199C790.923 344.59 791.223 343.306 791.822 342.345C792.422 341.384 793.304 340.853 794.47 340.752C795.636 340.651 797.068 341.105 798.767 342.116C800.516 343.156 801.973 344.421 803.139 345.909C804.321 347.407 805.204 348.988 805.787 350.653C806.387 352.327 806.686 353.969 806.686 355.577V357.815C806.686 359.385 806.387 360.651 805.787 361.612C805.204 362.583 804.33 363.119 803.164 363.22C801.998 363.32 800.557 362.861 798.842 361.84C797.11 360.81 795.653 359.545 794.47 358.047C793.304 356.559 792.422 354.978 791.822 353.303C791.223 351.629 790.923 350.007 790.923 348.437ZM795.694 349.038V351.276C795.694 351.954 795.803 352.668 796.019 353.417C796.252 354.156 796.602 354.858 797.068 355.523C797.551 356.179 798.134 356.71 798.817 357.116C799.533 357.542 800.116 357.705 800.566 357.604C801.015 357.484 801.349 357.188 801.565 356.716C801.782 356.225 801.89 355.64 801.89 354.962V352.724C801.89 352.007 801.773 351.278 801.54 350.539C801.324 349.79 800.982 349.093 800.516 348.447C800.066 347.792 799.483 347.251 798.767 346.825C798.101 346.429 797.535 346.286 797.068 346.396C796.602 346.487 796.252 346.773 796.019 347.254C795.803 347.726 795.694 348.321 795.694 349.038ZM808.31 382.589V380.35C808.31 378.761 808.61 377.486 809.209 376.525C809.826 375.574 810.717 375.048 811.883 374.947C813.065 374.856 814.514 375.321 816.229 376.341C817.961 377.372 819.41 378.631 820.576 380.119C821.742 381.607 822.625 383.189 823.224 384.863C823.824 386.538 824.124 388.169 824.124 389.758V391.997C824.124 393.586 823.824 394.861 823.224 395.822C822.641 396.793 821.767 397.329 820.601 397.43C819.435 397.531 817.995 397.071 816.279 396.05C814.547 395.02 813.09 393.756 811.907 392.258C810.725 390.76 809.826 389.168 809.209 387.484C808.61 385.81 808.31 384.178 808.31 382.589ZM813.107 383.204V385.442C813.107 386.14 813.24 386.878 813.506 387.657C813.773 388.435 814.139 389.148 814.606 389.793C815.089 390.449 815.646 390.965 816.279 391.341C817.079 391.817 817.703 392.004 818.153 391.904C818.603 391.803 818.911 391.492 819.077 390.971C819.26 390.46 819.352 389.856 819.352 389.158V386.92C819.352 386.222 819.235 385.503 819.002 384.764C818.769 384.005 818.419 383.303 817.953 382.657C817.503 382.002 816.929 381.467 816.229 381.05C815.53 380.634 814.947 380.481 814.481 380.591C814.031 380.692 813.69 380.983 813.456 381.465C813.223 381.927 813.107 382.506 813.107 383.204ZM818.003 360.217L800.241 382.73L796.744 378.498L814.506 355.985L818.003 360.217Z" fill="white"/>
<path d="M747.371 405.281L752.248 408.183C752.12 409.984 751.652 411.373 750.845 412.35C750.049 413.333 748.948 413.815 747.543 413.797C746.148 413.785 744.478 413.2 742.531 412.042C741.009 411.136 739.649 410.02 738.452 408.695C737.255 407.357 736.237 405.856 735.397 404.194C734.568 402.538 733.944 400.761 733.525 398.864C733.106 396.967 732.914 395.006 732.947 392.982L732.979 391.065C733.013 389.04 733.271 387.348 733.755 385.988C734.25 384.621 734.936 383.618 735.815 382.978C736.704 382.344 737.757 382.076 738.974 382.174C740.192 382.272 741.545 382.765 743.035 383.651C745.014 384.829 746.677 386.239 748.022 387.883C749.378 389.533 750.42 391.315 751.146 393.229C751.883 395.15 752.312 397.092 752.433 399.055L747.539 396.143C747.503 394.998 747.329 393.942 747.015 392.976C746.702 391.997 746.217 391.115 745.56 390.328C744.914 389.535 744.048 388.815 742.96 388.168C742.145 387.683 741.429 387.436 740.815 387.428C740.2 387.42 739.68 387.653 739.254 388.129C738.829 388.604 738.504 389.331 738.279 390.308C738.066 391.28 737.947 392.5 737.922 393.967L737.89 395.922C737.866 397.352 737.938 398.666 738.104 399.864C738.271 401.049 738.539 402.128 738.907 403.101C739.287 404.068 739.778 404.922 740.38 405.664C740.994 406.4 741.736 407.026 742.606 407.544C743.628 408.152 744.474 408.464 745.144 408.479C745.813 408.494 746.328 408.232 746.689 407.692C747.06 407.159 747.287 406.355 747.371 405.281ZM765.346 402.099L758.507 421.163L753.304 418.067L762.586 395.685L765.898 397.655L765.346 402.099ZM770.333 428.199L764.237 401.44L763.794 396.404L767.137 398.393L775.553 431.304L770.333 428.199ZM770.21 417.738L770.136 422.198L757.592 414.735L757.666 410.275L770.21 417.738ZM790.239 432.74C790.248 432.246 790.19 431.765 790.066 431.295C789.953 430.819 789.731 430.316 789.399 429.786C789.067 429.244 788.6 428.628 787.996 427.936C787.393 427.245 786.61 426.434 785.648 425.504C784.578 424.459 783.564 423.395 782.604 422.313C781.656 421.238 780.817 420.145 780.089 419.035C779.372 417.918 778.808 416.784 778.399 415.634C778.001 414.49 777.811 413.323 777.831 412.134C777.85 410.982 778.085 410.068 778.536 409.39C778.986 408.7 779.609 408.253 780.403 408.048C781.197 407.831 782.13 407.856 783.202 408.123C784.285 408.396 785.468 408.915 786.751 409.678C788.502 410.72 790.023 411.996 791.316 413.506C792.609 415.016 793.604 416.624 794.3 418.329C795.007 420.04 795.348 421.718 795.32 423.363L790.459 420.471C790.473 419.661 790.338 418.865 790.054 418.083C789.782 417.295 789.355 416.549 788.773 415.845C788.203 415.148 787.477 414.538 786.596 414.014C785.748 413.509 785.039 413.24 784.468 413.208C783.898 413.162 783.467 413.308 783.176 413.646C782.885 413.971 782.735 414.444 782.724 415.064C782.717 415.532 782.807 416.014 782.997 416.51C783.197 417.013 783.496 417.548 783.893 418.116C784.29 418.685 784.779 419.289 785.362 419.929C785.944 420.57 786.619 421.259 787.387 421.996C788.673 423.222 789.801 424.41 790.77 425.562C791.75 426.72 792.566 427.851 793.218 428.954C793.869 430.057 794.356 431.158 794.679 432.257C795.001 433.356 795.153 434.474 795.134 435.613C795.114 436.815 794.895 437.771 794.477 438.48C794.058 439.19 793.463 439.647 792.691 439.852C791.919 440.057 791.003 440.017 789.942 439.731C788.882 439.445 787.699 438.913 786.394 438.137C785.22 437.438 784.064 436.572 782.928 435.539C781.793 434.492 780.763 433.324 779.84 432.034C778.928 430.75 778.204 429.374 777.668 427.905C777.133 426.437 776.878 424.924 776.904 423.368L781.813 426.289C781.799 427.15 781.901 427.945 782.12 428.676C782.338 429.406 782.651 430.078 783.058 430.69C783.476 431.31 783.972 431.873 784.546 432.38C785.13 432.894 785.771 433.358 786.466 433.772C787.315 434.277 788.013 434.552 788.561 434.597C789.121 434.648 789.535 434.505 789.804 434.167C790.084 433.835 790.229 433.36 790.239 432.74ZM814.451 437.907L814.378 442.347L801.98 434.972L802.054 430.531L814.451 437.907ZM803.692 420.141L803.234 447.773L798.341 444.861L798.799 417.23L803.692 420.141ZM818.129 428.729L817.67 456.361L812.793 453.46L813.251 425.828L818.129 428.729ZM742.172 446.655L736.071 443.025L736.103 439.096L741.225 442.144C742.128 442.681 742.869 442.988 743.45 443.065C744.031 443.13 744.467 442.987 744.759 442.636C745.061 442.279 745.218 441.721 745.231 440.962C745.245 440.102 745.115 439.322 744.842 438.622C744.579 437.929 744.155 437.288 743.572 436.698C743 436.115 742.257 435.551 741.343 435.008L737.95 432.989L737.566 456.161L732.673 453.25L733.131 425.618L741.417 430.548C742.798 431.37 744.03 432.256 745.113 433.207C746.206 434.164 747.128 435.179 747.879 436.252C748.63 437.324 749.199 438.455 749.585 439.643C749.972 440.819 750.155 442.052 750.133 443.342C750.115 444.481 749.874 445.398 749.412 446.095C748.961 446.798 748.258 447.171 747.302 447.216C746.356 447.266 745.128 446.874 743.615 446.038L742.172 446.655ZM741.758 458.655L734.532 454.356L736.514 451.051L741.832 454.215C742.691 454.726 743.395 454.985 743.944 454.992C744.493 454.987 744.903 454.783 745.173 454.382C745.443 453.98 745.585 453.419 745.597 452.698C745.61 451.888 745.502 451.115 745.273 450.378C745.054 449.647 744.692 448.972 744.186 448.352C743.68 447.719 743.009 447.153 742.172 446.655L737.457 443.85L737.555 439.96L743.427 443.454L744.527 445.661C745.974 446.496 747.133 447.485 748.003 448.629C748.885 449.767 749.519 450.943 749.905 452.156C750.302 453.376 750.491 454.543 750.473 455.657C750.443 457.428 750.087 458.723 749.404 459.543C748.72 460.351 747.732 460.676 746.439 460.52C745.156 460.37 743.596 459.749 741.758 458.655ZM764.045 448.782L757.206 467.846L752.002 464.75L761.285 442.368L764.597 444.338L764.045 448.782ZM769.032 474.882L762.936 448.123L762.492 443.087L765.836 445.076L774.252 477.987L769.032 474.882ZM768.909 464.421L768.835 468.881L756.291 461.418L756.365 456.958L768.909 464.421ZM790.079 478.147L794.957 481.048C794.828 482.85 794.36 484.239 793.553 485.216C792.757 486.199 791.657 486.681 790.251 486.662C788.857 486.651 787.186 486.066 785.24 484.907C783.717 484.002 782.358 482.886 781.16 481.561C779.964 480.223 778.945 478.722 778.105 477.06C777.276 475.404 776.652 473.627 776.233 471.73C775.815 469.833 775.622 467.872 775.656 465.847L775.687 463.931C775.721 461.906 775.98 460.214 776.463 458.854C776.958 457.487 777.645 456.484 778.523 455.844C779.412 455.21 780.465 454.942 781.683 455.04C782.9 455.138 784.254 455.631 785.743 456.517C787.723 457.695 789.385 459.105 790.73 460.749C792.087 462.399 793.128 464.181 793.854 466.095C794.591 468.016 795.02 469.957 795.141 471.921L790.247 469.009C790.212 467.863 790.037 466.808 789.723 465.842C789.41 464.863 788.925 463.981 788.268 463.194C787.623 462.401 786.756 461.681 785.669 461.034C784.853 460.549 784.138 460.302 783.523 460.294C782.908 460.286 782.388 460.519 781.963 460.995C781.538 461.47 781.213 462.197 780.988 463.174C780.774 464.146 780.655 465.366 780.63 466.833L780.598 468.788C780.574 470.218 780.646 471.531 780.813 472.729C780.98 473.915 781.247 474.994 781.616 475.967C781.995 476.934 782.486 477.788 783.089 478.53C783.702 479.265 784.444 479.892 785.314 480.41C786.336 481.018 787.182 481.329 787.852 481.345C788.522 481.36 789.037 481.097 789.397 480.558C789.768 480.025 789.996 479.221 790.079 478.147ZM803.37 467.406L802.912 495.038L798.018 492.127L798.476 464.495L803.37 467.406ZM817.594 475.869L807.956 483.914L802.411 487.477L801.62 481.563L805.387 477.901L811.591 472.297L817.594 475.869ZM811.573 500.191L804.787 483.256L808.467 481.88L817.364 503.636L811.573 500.191Z" fill="white"/>
</g>
<path d="M853.055 728.534C853.055 728.534 859.447 696.151 824.669 698.154C824.669 698.154 825.28 733.799 853.055 728.534Z" fill="#EC715D"/>
<path d="M876.412 740.695C876.412 740.695 865.838 719.681 897.655 712.785C897.655 712.785 901.038 743.071 876.412 740.695Z" fill="#EC715D"/>
<path d="M885.248 677C885.248 677 902.261 713.577 869.833 719.914C869.786 719.914 846.993 693.448 885.248 677Z" fill="#E65473"/>
<path d="M867.577 757.235H868.658C868.564 756.443 868.517 755.651 868.423 754.906C867.953 748.289 868.094 741.626 868.658 735.01C869.222 728.393 870.209 721.824 871.478 715.3C872.136 712.039 872.841 708.777 873.687 705.562C874.486 702.347 875.379 699.132 876.365 695.917C873.922 702.114 872.042 708.591 870.585 715.067C869.833 718.329 869.222 721.591 868.658 724.899C868.141 728.207 867.765 731.515 867.436 734.87C867.154 738.225 867.013 741.533 867.013 744.888C867.013 748.243 867.154 751.551 867.389 755.045C867.436 755.884 867.483 756.49 867.577 757.235Z" fill="#E02D7B"/>
<path d="M841.495 711.154L843.14 713.344C843.704 714.043 844.174 714.835 844.738 715.58C845.255 716.326 845.818 717.071 846.288 717.863L847.745 720.193C848.215 720.985 848.732 721.731 849.155 722.569L850.471 724.992C850.894 725.784 851.364 726.576 851.74 727.415C852.539 729.046 853.385 730.677 854.137 732.354L856.346 737.386L856.91 738.644L857.38 739.949L858.366 742.512C859.776 745.913 860.81 749.408 861.985 752.856L862.408 754.16L862.784 755.465L863.536 758.121L863.724 758.82H865.228L864.006 755.092L863.63 753.741L863.207 752.436C862.079 748.942 860.998 745.401 859.635 741.999L858.648 739.437L858.131 738.132L857.568 736.874L855.312 731.842C854.513 730.211 853.62 728.533 852.774 726.903C852.351 726.064 851.881 725.272 851.411 724.48L850.001 722.103C849.531 721.311 849.061 720.519 848.544 719.774L846.993 717.49C846.476 716.698 845.912 715.999 845.349 715.254C844.785 714.508 844.268 713.763 843.657 713.064L841.871 710.967L839.944 708.964C838.628 707.659 837.265 706.401 835.761 705.376C837.218 706.541 838.44 707.892 839.662 709.243L841.495 711.154Z" fill="#E02D7B"/>
<path d="M872.372 758.773L872.56 757.375L872.889 755.791L873.5 752.576L874.299 749.407C875.379 745.214 876.789 741.067 878.669 737.153C879.609 735.196 880.643 733.239 881.818 731.422C882.946 729.558 884.262 727.788 885.813 726.25C884.074 727.648 882.664 729.372 881.348 731.096C880.69 731.981 880.079 732.913 879.468 733.845C878.857 734.777 878.387 735.755 877.823 736.734C875.755 740.648 874.299 744.841 873.124 749.128L872.325 752.343L871.62 755.511L871.291 757.235L871.009 758.819H872.372V758.773Z" fill="#E02D7B"/>
<path d="M751.083 102.26C816.166 126.748 853.564 84.3665 902.088 102.436C919.261 108.856 1056.15 148.409 1071.47 82.9836C1073.03 90.0785 1073.36 96.8612 1072.15 102.783C1057.97 169.636 919.718 129.569 902.454 123.094C853.93 105.024 816.532 147.406 751.449 122.917C717.428 110.15 709.709 88.9343 714.717 70.3491C718.539 82.5657 729.388 94.0966 751.083 102.26Z" fill="#D1D1D1"/>
<path d="M750.52 36.2732C783.317 27.368 750.693 -32.9001 826.532 -44.3558C902.371 -55.8116 911.703 54.4298 973.444 30.1271C1024.64 9.96568 1063.85 50.4523 1071.51 84.8303C1056.21 150.048 919.593 110.602 902.373 104.221C853.92 86.2089 816.575 128.456 751.587 104.045C729.995 95.8898 719.09 84.4137 715.221 72.3271C719.778 55.3129 734.804 40.5536 750.52 36.2732Z" fill="#FEFEFE"/>
<path opacity="0.06" d="M515.219 555.776C492.03 560.806 427.735 540.606 371.727 510.694C315.551 480.73 288.944 452.504 312.132 447.473C335.32 442.443 399.615 462.643 455.624 492.555C511.8 522.519 538.407 550.745 515.219 555.776Z" fill="black"/>
<g opacity="0.4">
<path opacity="0.1" d="M283.455 714L241 689.444L283.455 664.888L326 689.444L283.455 714Z" fill="black"/>
<path d="M283.455 694.445L278.015 691.23V638.904L283.455 642.118V694.445Z" fill="#B8B8B8"/>
<path d="M288.985 691.23L283.455 694.445V642.118L288.985 638.904V691.23Z" fill="#B8B8B8"/>
<path d="M283.455 679.265L245.816 657.477L283.455 518V679.265Z" fill="#D1D1D1"/>
<path d="M321.184 657.477L283.456 679.265V518L321.184 657.477Z" fill="#B8B8B8"/>
</g>
<g opacity="0.3">
<path d="M1118.12 803V890L1076 865.054L1118.12 803Z" fill="#D1D1D1"/>
<path d="M1118.12 890L1160 864.806L1118.12 803V890Z" fill="#B8B8B8"/>
</g>
<path opacity="0.1" d="M1016.32 782.759C996.858 794.01 965.322 794.01 945.941 782.759C926.478 771.508 926.478 753.359 945.941 742.108C965.404 730.857 996.94 730.857 1016.32 742.108C1035.78 753.359 1035.78 771.508 1016.32 782.759Z" fill="black"/>
<path d="M966.145 582.41C966.145 579.865 966.473 577.483 966.966 575.43C956.29 572.556 948.406 579.208 948.406 592.594C948.406 608.526 959.575 627.825 973.372 635.791C984.951 642.443 994.642 638.993 997.434 628.317C995.381 627.743 993.245 626.839 991.028 625.607C977.313 617.641 966.145 598.342 966.145 582.41Z" fill="url(#paint5_linear_161_2)"/>
<path d="M991.027 539.049C978.791 531.986 967.622 531.329 959.081 535.928H958.999C958.26 536.339 957.521 536.831 956.782 537.324L945.202 544.387C953.168 541.759 962.859 543.073 973.371 549.15C1000.06 564.589 1021.74 604.583 1021.74 638.5C1021.74 672.417 973.371 723.17 973.371 723.17L991.027 712.986C991.027 712.986 1039.4 662.152 1039.4 628.317C1039.48 594.482 1017.8 554.488 991.027 539.049Z" fill="url(#paint6_linear_161_2)"/>
<path d="M925 582.657C925 616.574 973.371 723.252 973.371 723.252C973.371 723.252 1021.74 672.418 1021.74 638.583C1021.74 604.666 1000.06 564.672 973.371 549.233C962.859 543.155 953.168 541.841 945.202 544.469C932.966 548.493 925 562.126 925 582.657ZM973.371 635.791C959.574 627.825 948.487 608.526 948.487 592.594C948.487 579.29 956.371 572.556 967.047 575.43C969.1 576.005 971.236 576.908 973.453 578.14C987.25 586.106 998.418 605.405 998.418 621.337C998.418 623.883 998.09 626.264 997.597 628.317C994.641 638.994 984.95 642.443 973.371 635.791Z" fill="url(#paint7_linear_161_2)"/>
<g clip-path="url(#clip2_161_2)">
<path d="M320.019 255.967C326.595 229.07 340.563 208.95 359.07 196.555L356.032 195.341L375.053 188.206C375.858 187.905 376.663 187.57 377.468 187.302L377.871 187.152C406.76 177.006 442.503 181.847 477.984 204.065C547.526 247.635 589.585 341.516 571.871 413.749C563.992 445.904 545.601 468.326 521.498 479.509L521.532 479.514L521.364 479.56C517.945 481.146 514.389 482.51 510.73 483.624L491.174 491.095L491.143 487.324C467.267 489.204 440.492 482.319 413.906 465.65C344.364 422.08 302.339 328.204 320.019 255.967Z" fill="url(#paint8_linear_161_2)"/>
<path d="M298.146 264.185C280.467 336.422 322.492 430.299 392.034 473.869C461.576 517.438 532.32 494.204 549.999 421.967C567.679 349.73 525.653 255.853 456.112 212.284C386.57 168.714 315.826 191.948 298.146 264.185Z" fill="url(#paint9_linear_161_2)"/>
<path d="M314.05 274.967C298.845 337.111 335.009 417.896 394.843 455.368C454.677 492.841 515.521 472.851 530.759 410.712C545.964 348.568 509.801 267.783 449.966 230.311C390.132 192.838 329.255 212.824 314.05 274.967Z" fill="url(#paint10_linear_161_2)"/>
<path d="M314.05 274.967C298.845 337.111 335.009 417.896 394.843 455.368C454.677 492.841 515.521 472.851 530.759 410.712C545.964 348.568 509.801 267.783 449.966 230.311C390.132 192.838 329.255 212.824 314.05 274.967Z" fill="url(#paint11_linear_161_2)"/>
<path opacity="0.4" d="M486 261C472.5 243.5 442 222.5 421 216.5L415 337L486 261Z" fill="#E85B6B"/>
<path d="M406.454 451.466C346.619 413.96 310.456 333.209 325.694 271.036C332.662 242.63 349.158 223.046 370.753 213.739C343.517 220.437 322.223 241.629 314.05 274.967C298.845 337.111 335.009 417.896 394.843 455.368C427.314 475.73 460.083 479.094 485.701 468.042C462.126 473.831 434.189 468.829 406.454 451.466Z" fill="#BCBCBC"/>
<path d="M465.595 277.202L408.004 340.927C407.371 341.658 407.481 342.826 408.262 343.608C409.042 344.355 410.186 344.404 410.82 343.707L467.258 278.88C467.891 278.149 468.086 277.259 467.475 276.669C466.797 276.071 465.895 276.868 465.595 277.202Z" fill="url(#paint12_linear_161_2)" stroke="url(#paint13_linear_161_2)" stroke-width="3.39771" stroke-miterlimit="10"/>
<path d="M419.725 276.662L415.588 338.328C415.527 339.168 416.207 340.004 417.05 340.183C417.892 340.362 418.628 339.814 418.655 338.969L421.546 277.071C421.606 276.231 421.297 275.443 420.623 275.321C419.916 275.227 419.756 276.292 419.725 276.662Z" fill="url(#paint14_linear_161_2)" stroke="url(#paint15_linear_161_2)" stroke-width="3.39771" stroke-miterlimit="10"/>
<path d="M422.222 236.467L422.167 229.706C422.15 227.633 423.587 226.465 425.41 227.112C427.198 227.755 428.697 229.989 428.714 232.061L428.77 238.822C428.787 240.895 427.349 242.063 425.527 241.416C423.704 240.769 422.239 238.539 422.222 236.467ZM427.672 457.756C429.46 458.399 430.931 457.235 430.914 455.162L430.859 448.401C430.842 446.328 429.343 444.095 427.554 443.452C425.766 442.809 424.295 443.973 424.312 446.046L424.367 452.807C424.384 454.879 425.849 457.109 427.672 457.756ZM469.412 270.781C470.973 272.378 472.993 272.509 473.856 271.027L476.744 266.214C477.64 264.737 477.081 262.254 475.486 260.619C473.925 259.022 471.905 258.891 471.043 260.373L468.155 265.186C467.292 266.667 467.851 269.184 469.412 270.781ZM377.527 424.206C379.088 425.803 381.108 425.934 381.971 424.452L384.859 419.64C385.755 418.162 385.197 415.679 383.602 414.044C382.041 412.447 380.021 412.316 379.158 413.798L376.27 418.611C375.407 420.126 375.966 422.609 377.527 424.206ZM501.845 319.342C502.771 321.466 504.767 322.815 506.311 322.34L511.346 320.797C512.89 320.321 513.411 318.217 512.486 316.093C511.56 313.969 509.563 312.62 508.019 313.095L502.951 314.634C501.44 315.114 500.919 317.218 501.845 319.342ZM340.528 368.766C341.454 370.89 343.451 372.239 344.995 371.764L350.03 370.22C351.574 369.745 352.095 367.641 351.169 365.517C350.243 363.393 348.246 362.044 346.702 362.519L341.667 364.063C340.123 364.538 339.602 366.642 340.528 368.766ZM514.072 374.101C514.089 376.173 515.588 378.407 517.376 379.05L523.249 381.18C525.038 381.823 526.509 380.659 526.492 378.587C526.475 376.514 524.976 374.28 523.187 373.638L517.315 371.507C515.492 370.86 514.055 372.028 514.072 374.101ZM326.556 306.277C326.573 308.349 328.072 310.583 329.86 311.226L335.733 313.357C337.522 313.999 338.993 312.835 338.976 310.763C338.959 308.69 337.46 306.457 335.671 305.814L329.798 303.683C328.01 303.04 326.538 304.17 326.556 306.277ZM502.842 420.375C501.946 421.852 502.504 424.335 504.099 425.971L509.223 431.193C510.784 432.79 512.805 432.92 513.667 431.439C514.564 429.962 514.005 427.478 512.41 425.843L507.286 420.62C505.725 418.989 503.739 418.898 502.842 420.375ZM339.381 253.459C338.484 254.936 339.043 257.419 340.638 259.055L345.762 264.277C347.323 265.874 349.343 266.004 350.206 264.523C351.102 263.046 350.543 260.562 348.948 258.927L343.824 253.704C342.263 252.073 340.277 251.982 339.381 253.459ZM471.15 445.73C469.606 446.205 469.085 448.309 470.011 450.433L472.995 457.376C473.921 459.5 475.918 460.849 477.462 460.374C479.006 459.898 479.527 457.795 478.601 455.671L475.616 448.727C474.724 446.607 472.728 445.259 471.15 445.73ZM375.552 224.485C374.008 224.961 373.487 227.064 374.413 229.189L377.398 236.132C378.324 238.256 380.32 239.605 381.864 239.129C383.408 238.654 383.929 236.55 383.003 234.426L380.019 227.483C379.092 225.325 377.096 224.01 375.552 224.485Z" fill="url(#paint16_linear_161_2)"/>
<path d="M449.933 230.34C399.941 199.017 349.269 207.856 325.067 247.841C334.341 307.811 379.241 370.672 443.225 405.297C470.806 420.23 498.564 428.025 524.25 429.336C526.895 423.643 529.099 417.451 530.726 410.741C545.931 348.598 509.767 267.813 449.933 230.34Z" fill="url(#paint17_linear_161_2)"/>
</g>
<defs>
<linearGradient id="paint0_linear_161_2" x1="470" y1="623.5" x2="178" y2="431.5" gradientUnits="userSpaceOnUse">
<stop stop-color="#FEFEFE"/>
<stop offset="1" stop-color="#FEFEFE" stop-opacity="0"/>
</linearGradient>
<linearGradient id="paint1_linear_161_2" x1="674.828" y1="148.717" x2="531.362" y2="148.717" gradientUnits="userSpaceOnUse">
<stop stop-color="#021290"/>
<stop offset="1" stop-color="#190158"/>
</linearGradient>
<linearGradient id="paint2_linear_161_2" x1="650.787" y1="745.753" x2="842.514" y2="815.935" gradientUnits="userSpaceOnUse">
<stop stop-color="#E02D7B"/>
<stop offset="0.3191" stop-color="#E6506F"/>
<stop offset="0.7709" stop-color="#EE7C5F"/>
<stop offset="1" stop-color="#F18D59"/>
</linearGradient>
<linearGradient id="paint3_linear_161_2" x1="481.328" y1="620.224" x2="864.929" y2="787.364" gradientUnits="userSpaceOnUse">
<stop stop-color="#E02D7B"/>
<stop offset="0.3191" stop-color="#E6506F"/>
<stop offset="0.7709" stop-color="#EE7C5F"/>
<stop offset="1" stop-color="#F18D59"/>
</linearGradient>
<linearGradient id="paint4_linear_161_2" x1="411.402" y1="679.481" x2="1050.74" y2="841.141" gradientUnits="userSpaceOnUse">
<stop stop-color="#E02D7B"/>
<stop offset="0.3191" stop-color="#E6506F"/>
<stop offset="0.7709" stop-color="#EE7C5F"/>
<stop offset="1" stop-color="#F18D59"/>
</linearGradient>
<linearGradient id="paint5_linear_161_2" x1="908.851" y1="624.072" x2="1156.09" y2="558.669" gradientUnits="userSpaceOnUse">
<stop stop-color="#E02D7B"/>
<stop offset="0.3191" stop-color="#E6506F"/>
<stop offset="0.7709" stop-color="#EE7C5F"/>
<stop offset="1" stop-color="#F18D59"/>
</linearGradient>
<linearGradient id="paint6_linear_161_2" x1="878.615" y1="660.963" x2="1222.29" y2="537.302" gradientUnits="userSpaceOnUse">
<stop stop-color="#E02D7B"/>
<stop offset="0.3191" stop-color="#E6506F"/>
<stop offset="0.7709" stop-color="#EE7C5F"/>
<stop offset="1" stop-color="#F18D59"/>
</linearGradient>
<linearGradient id="paint7_linear_161_2" x1="824.436" y1="687.354" x2="1034.82" y2="603.843" gradientUnits="userSpaceOnUse">
<stop stop-color="#E02D7B"/>
<stop offset="0.3191" stop-color="#E6506F"/>
<stop offset="0.7709" stop-color="#EE7C5F"/>
<stop offset="1" stop-color="#F18D59"/>
</linearGradient>
<linearGradient id="paint8_linear_161_2" x1="316.201" y1="318.56" x2="575.42" y2="316.433" gradientUnits="userSpaceOnUse">
<stop stop-color="#E02D7B"/>
<stop offset="0.2101" stop-color="#E02F78"/>
<stop offset="0.3901" stop-color="#E2376D"/>
<stop offset="0.5589" stop-color="#E5435B"/>
<stop offset="0.7211" stop-color="#E85443"/>
<stop offset="0.877" stop-color="#ED6A23"/>
<stop offset="1" stop-color="#F17F04"/>
</linearGradient>
<linearGradient id="paint9_linear_161_2" x1="535.925" y1="301.108" x2="313.691" y2="406.435" gradientUnits="userSpaceOnUse">
<stop stop-color="#E02D7B"/>
<stop offset="0.2101" stop-color="#E02F78"/>
<stop offset="0.3901" stop-color="#E2376D"/>
<stop offset="0.5589" stop-color="#E5435B"/>
<stop offset="0.7211" stop-color="#E85443"/>
<stop offset="0.877" stop-color="#ED6A23"/>
<stop offset="1" stop-color="#F17F04"/>
</linearGradient>
<linearGradient id="paint10_linear_161_2" x1="346.068" y1="410.332" x2="498.686" y2="275.378" gradientUnits="userSpaceOnUse">
<stop stop-color="#7AA9F2"/>
<stop offset="0.203" stop-color="#90BBF6"/>
<stop offset="0.5201" stop-color="#ACD3FB"/>
<stop offset="0.7966" stop-color="#BEE2FE"/>
<stop offset="1" stop-color="#C4E7FF"/>
</linearGradient>
<linearGradient id="paint11_linear_161_2" x1="346.068" y1="410.332" x2="498.686" y2="275.378" gradientUnits="userSpaceOnUse">
<stop offset="1.38522e-07" stop-color="#B8B8B8"/>
<stop offset="0.1741" stop-color="#CACACA"/>
<stop offset="0.5027" stop-color="#E6E6E6"/>
<stop offset="0.7892" stop-color="#F8F8F8"/>
<stop offset="1" stop-color="#FEFEFE"/>
</linearGradient>
<linearGradient id="paint12_linear_161_2" x1="472.305" y1="310.337" x2="404.522" y2="319.513" gradientUnits="userSpaceOnUse">
<stop offset="1.33195e-07" stop-color="#231F20"/>
<stop offset="0.3981" stop-color="#2C292A"/>
<stop offset="1" stop-color="#404041"/>
</linearGradient>
<linearGradient id="paint13_linear_161_2" x1="408.071" y1="304.356" x2="467.788" y2="307.824" gradientUnits="userSpaceOnUse">
<stop offset="1.33195e-07" stop-color="#231F20"/>
<stop offset="0.3981" stop-color="#2C292A"/>
<stop offset="1" stop-color="#404041"/>
</linearGradient>
<linearGradient id="paint14_linear_161_2" x1="403.319" y1="290.243" x2="434.42" y2="325.753" gradientUnits="userSpaceOnUse">
<stop offset="1.33195e-07" stop-color="#231F20"/>
<stop offset="0.3981" stop-color="#2C292A"/>
<stop offset="1" stop-color="#404041"/>
</linearGradient>
<linearGradient id="paint15_linear_161_2" x1="414.069" y1="307.182" x2="423.078" y2="307.146" gradientUnits="userSpaceOnUse">
<stop offset="1.33195e-07" stop-color="#231F20"/>
<stop offset="0.3981" stop-color="#2C292A"/>
<stop offset="1" stop-color="#404041"/>
</linearGradient>
<linearGradient id="paint16_linear_161_2" x1="326.759" y1="329.293" x2="526.054" y2="327.658" gradientUnits="userSpaceOnUse">
<stop stop-color="#992053"/>
<stop offset="0.1783" stop-color="#B02753"/>
<stop offset="0.5439" stop-color="#DB3354"/>
<stop offset="0.8302" stop-color="#F53A54"/>
<stop offset="1" stop-color="#FF3D54"/>
</linearGradient>
<linearGradient id="paint17_linear_161_2" x1="354.18" y1="398.471" x2="519.867" y2="251.96" gradientUnits="userSpaceOnUse">
<stop stop-color="white"/>
<stop offset="0.0454" stop-color="white" stop-opacity="0.9546"/>
<stop offset="1" stop-color="white" stop-opacity="0"/>
</linearGradient>
<clipPath id="clip0_161_2">
<rect width="164.598" height="351.165" fill="white" transform="translate(703.768 242)"/>
</clipPath>
<clipPath id="clip1_161_2">
<rect width="210" height="280.063" fill="white" transform="translate(680.768 308)"/>
</clipPath>
<clipPath id="clip2_161_2">
<rect width="283.913" height="308.92" fill="white" transform="matrix(0.991445 0.130526 0.00820296 0.999966 293 166)"/>
</clipPath>
</defs>
</svg>
