<svg width="49" height="49" viewBox="0 0 49 49" fill="none" xmlns="http://www.w3.org/2000/svg">
    <path fill-rule="evenodd" clip-rule="evenodd" d="M28.3324 30.8151C27.8037 30.1413 26.9451 29.1651 26.2101 29.0726C25.763 29.0163 25.2491 29.3913 24.7426 29.7451C24.6438 29.7951 23.8804 30.2551 23.7877 30.2826C23.2985 30.4238 22.2547 30.4651 21.6235 29.8826C21.0157 29.3201 20.0547 28.2788 19.2789 27.3251C18.5377 26.3426 17.7607 25.1613 17.363 24.4363C16.9479 23.6851 17.2468 22.6913 17.5038 22.2538C17.5507 22.1751 18.119 21.5838 18.2462 21.4463L18.2647 21.4688C18.7354 21.0688 19.2283 20.6626 19.2838 20.2226C19.3752 19.4901 18.6353 18.4238 18.1066 17.7488C17.5779 17.0726 16.7589 15.8888 15.6434 16.0563C15.2234 16.1188 14.8615 16.2676 14.5045 16.4813L14.4946 16.4701L14.4353 16.5163L14.4044 16.5326L14.4081 16.5376C14.2031 16.6976 13.6175 17.1401 13.5508 17.2001C12.827 17.8513 11.7374 19.3851 12.5799 22.1438C13.205 24.1938 14.5378 26.6013 16.3537 29.0363L16.3438 29.0451C16.4328 29.1626 16.5242 29.2688 16.6168 29.3826C16.7033 29.4988 16.7885 29.6138 16.8775 29.7288L16.8898 29.7201C18.8169 32.0688 20.8378 33.9463 22.6821 35.0538C25.1651 36.5438 26.9303 35.8726 27.7456 35.3388C27.8222 35.2876 28.4053 34.8288 28.6029 34.6776L28.6078 34.6826C28.6152 34.6751 28.6202 34.6651 28.6301 34.6576C28.6479 34.644 28.6656 34.6302 28.6832 34.6163L28.6758 34.6063C28.9747 34.3138 29.2144 34.0013 29.3799 33.6076C29.8135 32.5713 28.8611 31.4913 28.3324 30.8151Z" fill="#EB242A"/>
    <path d="M25 23.0368C25 22.8541 25.066 22.6775 25.1858 22.5398C25.3057 22.4021 25.4712 22.3126 25.6518 22.2877L25.7544 22.2807L34.4251 22.2817L31.4378 19.2915C31.3096 19.1636 31.2316 18.9937 31.2179 18.8129C31.2042 18.6321 31.2559 18.4524 31.3633 18.3065L31.4358 18.2219C31.5635 18.0935 31.7331 18.0155 31.9135 18.002C32.0938 17.9885 32.2731 18.0404 32.4185 18.1483L32.5029 18.2209L36.7777 22.4984L36.8411 22.569L36.9004 22.6618L36.9215 22.6981L36.9598 22.7898L36.9899 22.9108L36.998 22.9813L37 23.0418C36.9999 23.0927 36.9945 23.1433 36.9839 23.1931L36.9608 23.2757C36.9298 23.3712 36.8799 23.4593 36.8139 23.5348L32.504 27.8598C32.3695 27.9954 32.1888 28.075 31.9982 28.0824C31.8076 28.0899 31.6213 28.0247 31.4767 27.9C31.3321 27.7753 31.24 27.6003 31.219 27.4103C31.198 27.2202 31.2496 27.0293 31.3633 26.8758L31.4368 26.7911L34.4211 23.7939L25.7544 23.7939C25.5543 23.7939 25.3624 23.7143 25.2209 23.5725C25.0795 23.4307 25 23.2373 25 23.0368Z" fill="#EB242A" stroke="#EB242A" stroke-width="0.75"/>
    <circle cx="24.5" cy="24.5" r="23.5" stroke="#EB242A" stroke-width="2"/>
</svg>